<mxfile host="app.diagrams.net" modified="2023-09-27T18:31:08.771Z" agent="Mozilla/5.0 (X11; Linux x86_64; rv:109.0) Gecko/20100101 Firefox/114.0" etag="BMX82dnWzyhWotjiW5Vm" version="21.8.2" type="github">
  <diagram name="PÃ¡gina-1" id="5hQ4zv-oG_bUhU793YBu">
    <mxGraphModel dx="1434" dy="795" grid="1" gridSize="10" guides="1" tooltips="1" connect="1" arrows="1" fold="1" page="1" pageScale="1" pageWidth="827" pageHeight="1169" math="0" shadow="0">
      <root>
        <mxCell id="0" />
        <mxCell id="1" parent="0" />
        <mxCell id="UdiOFKoYtMbHhU-ag28c-12" style="edgeStyle=orthogonalEdgeStyle;rounded=0;orthogonalLoop=1;jettySize=auto;html=1;exitX=0.5;exitY=1;exitDx=0;exitDy=0;endArrow=none;endFill=0;" edge="1" parent="1" source="ciahp-Gt6Fmims4PauhT-34" target="ciahp-Gt6Fmims4PauhT-4">
          <mxGeometry relative="1" as="geometry" />
        </mxCell>
        <mxCell id="ciahp-Gt6Fmims4PauhT-7" style="edgeStyle=orthogonalEdgeStyle;rounded=0;orthogonalLoop=1;jettySize=auto;html=1;entryX=0;entryY=0.5;entryDx=0;entryDy=0;endArrow=none;endFill=0;" parent="1" source="ciahp-Gt6Fmims4PauhT-1" target="ciahp-Gt6Fmims4PauhT-3" edge="1">
          <mxGeometry relative="1" as="geometry" />
        </mxCell>
        <mxCell id="ciahp-Gt6Fmims4PauhT-30" style="edgeStyle=orthogonalEdgeStyle;rounded=0;orthogonalLoop=1;jettySize=auto;html=1;entryX=0;entryY=1;entryDx=0;entryDy=0;" parent="1" source="ciahp-Gt6Fmims4PauhT-1" target="ciahp-Gt6Fmims4PauhT-28" edge="1">
          <mxGeometry relative="1" as="geometry">
            <mxPoint x="410" y="330" as="targetPoint" />
          </mxGeometry>
        </mxCell>
        <mxCell id="ciahp-Gt6Fmims4PauhT-1" value="Articulo" style="rounded=0;whiteSpace=wrap;html=1;fillColor=#e1d5e7;strokeColor=#9673a6;" parent="1" vertex="1">
          <mxGeometry x="350" y="380" width="120" height="60" as="geometry" />
        </mxCell>
        <mxCell id="ciahp-Gt6Fmims4PauhT-21" style="edgeStyle=orthogonalEdgeStyle;rounded=0;orthogonalLoop=1;jettySize=auto;html=1;exitX=0.5;exitY=0;exitDx=0;exitDy=0;" parent="1" source="ciahp-Gt6Fmims4PauhT-2" edge="1">
          <mxGeometry relative="1" as="geometry">
            <mxPoint x="560" y="210" as="targetPoint" />
          </mxGeometry>
        </mxCell>
        <mxCell id="ciahp-Gt6Fmims4PauhT-2" value="pedio" style="rhombus;whiteSpace=wrap;html=1;fillColor=#ffe6cc;strokeColor=#d79b00;" parent="1" vertex="1">
          <mxGeometry x="520" y="370" width="80" height="80" as="geometry" />
        </mxCell>
        <mxCell id="ciahp-Gt6Fmims4PauhT-6" style="edgeStyle=orthogonalEdgeStyle;rounded=0;orthogonalLoop=1;jettySize=auto;html=1;entryX=0;entryY=0.5;entryDx=0;entryDy=0;endArrow=none;endFill=0;" parent="1" source="ciahp-Gt6Fmims4PauhT-4" target="ciahp-Gt6Fmims4PauhT-1" edge="1">
          <mxGeometry relative="1" as="geometry" />
        </mxCell>
        <mxCell id="ciahp-Gt6Fmims4PauhT-4" value="Fabrica" style="rounded=0;whiteSpace=wrap;html=1;fillColor=#e1d5e7;strokeColor=#9673a6;" parent="1" vertex="1">
          <mxGeometry x="50" y="380" width="120" height="60" as="geometry" />
        </mxCell>
        <mxCell id="ciahp-Gt6Fmims4PauhT-5" value="Distribuye" style="rhombus;whiteSpace=wrap;html=1;fillColor=#fff2cc;strokeColor=#d6b656;" parent="1" vertex="1">
          <mxGeometry x="210" y="370" width="80" height="80" as="geometry" />
        </mxCell>
        <mxCell id="UdiOFKoYtMbHhU-ag28c-8" style="edgeStyle=orthogonalEdgeStyle;rounded=0;orthogonalLoop=1;jettySize=auto;html=1;exitX=0.5;exitY=0;exitDx=0;exitDy=0;endArrow=none;endFill=0;" edge="1" parent="1" source="ciahp-Gt6Fmims4PauhT-8" target="ciahp-Gt6Fmims4PauhT-3">
          <mxGeometry relative="1" as="geometry" />
        </mxCell>
        <mxCell id="UdiOFKoYtMbHhU-ag28c-11" style="edgeStyle=orthogonalEdgeStyle;rounded=0;orthogonalLoop=1;jettySize=auto;html=1;exitX=0.25;exitY=1;exitDx=0;exitDy=0;entryX=0.5;entryY=1;entryDx=0;entryDy=0;endArrow=none;endFill=0;" edge="1" parent="1" source="ciahp-Gt6Fmims4PauhT-8" target="ciahp-Gt6Fmims4PauhT-3">
          <mxGeometry relative="1" as="geometry" />
        </mxCell>
        <mxCell id="ciahp-Gt6Fmims4PauhT-8" value="&lt;u&gt;ID&lt;/u&gt;" style="rounded=1;whiteSpace=wrap;html=1;" parent="1" vertex="1">
          <mxGeometry x="750" y="480" width="60" height="20" as="geometry" />
        </mxCell>
        <mxCell id="ciahp-Gt6Fmims4PauhT-11" value="n.-" style="rounded=1;whiteSpace=wrap;html=1;" parent="1" vertex="1">
          <mxGeometry x="660" y="540" width="60" height="20" as="geometry" />
        </mxCell>
        <mxCell id="ciahp-Gt6Fmims4PauhT-12" value="Provincia" style="rounded=1;whiteSpace=wrap;html=1;" parent="1" vertex="1">
          <mxGeometry x="590" y="540" width="60" height="20" as="geometry" />
        </mxCell>
        <mxCell id="ciahp-Gt6Fmims4PauhT-13" value="Ciudad" style="rounded=1;whiteSpace=wrap;html=1;" parent="1" vertex="1">
          <mxGeometry x="620" y="560" width="60" height="20" as="geometry" />
        </mxCell>
        <mxCell id="UdiOFKoYtMbHhU-ag28c-10" style="edgeStyle=orthogonalEdgeStyle;rounded=0;orthogonalLoop=1;jettySize=auto;html=1;entryX=1;entryY=0.5;entryDx=0;entryDy=0;endArrow=none;endFill=0;" edge="1" parent="1" source="ciahp-Gt6Fmims4PauhT-16" target="ciahp-Gt6Fmims4PauhT-3">
          <mxGeometry relative="1" as="geometry" />
        </mxCell>
        <mxCell id="ciahp-Gt6Fmims4PauhT-16" value="saldo" style="rounded=1;whiteSpace=wrap;html=1;" parent="1" vertex="1">
          <mxGeometry x="767" y="447.5" width="60" height="20" as="geometry" />
        </mxCell>
        <mxCell id="UdiOFKoYtMbHhU-ag28c-1" style="edgeStyle=orthogonalEdgeStyle;rounded=0;orthogonalLoop=1;jettySize=auto;html=1;endArrow=none;endFill=0;" edge="1" parent="1" source="ciahp-Gt6Fmims4PauhT-18" target="ciahp-Gt6Fmims4PauhT-3">
          <mxGeometry relative="1" as="geometry" />
        </mxCell>
        <mxCell id="UdiOFKoYtMbHhU-ag28c-7" style="edgeStyle=orthogonalEdgeStyle;rounded=0;orthogonalLoop=1;jettySize=auto;html=1;exitX=0.5;exitY=1;exitDx=0;exitDy=0;endArrow=none;endFill=0;" edge="1" parent="1" source="ciahp-Gt6Fmims4PauhT-18" target="ciahp-Gt6Fmims4PauhT-10">
          <mxGeometry relative="1" as="geometry" />
        </mxCell>
        <mxCell id="ciahp-Gt6Fmims4PauhT-18" value="Direccion" style="ellipse;shape=doubleEllipse;margin=3;whiteSpace=wrap;html=1;align=center;" parent="1" vertex="1">
          <mxGeometry x="627" y="470" width="100" height="40" as="geometry" />
        </mxCell>
        <mxCell id="UdiOFKoYtMbHhU-ag28c-4" style="edgeStyle=orthogonalEdgeStyle;rounded=0;orthogonalLoop=1;jettySize=auto;html=1;exitX=0.5;exitY=1;exitDx=0;exitDy=0;" edge="1" parent="1" source="ciahp-Gt6Fmims4PauhT-19" target="ciahp-Gt6Fmims4PauhT-3">
          <mxGeometry relative="1" as="geometry" />
        </mxCell>
        <mxCell id="ciahp-Gt6Fmims4PauhT-19" value="Limite de credito" style="ellipse;whiteSpace=wrap;html=1;align=center;" parent="1" vertex="1">
          <mxGeometry x="720" y="330" width="100" height="40" as="geometry" />
        </mxCell>
        <mxCell id="ciahp-Gt6Fmims4PauhT-20" value="Descuento" style="ellipse;whiteSpace=wrap;html=1;align=center;" parent="1" vertex="1">
          <mxGeometry x="720" y="510" width="100" height="40" as="geometry" />
        </mxCell>
        <mxCell id="UdiOFKoYtMbHhU-ag28c-6" style="edgeStyle=orthogonalEdgeStyle;rounded=0;orthogonalLoop=1;jettySize=auto;html=1;exitX=0.5;exitY=1;exitDx=0;exitDy=0;endArrow=none;endFill=0;" edge="1" parent="1" source="ciahp-Gt6Fmims4PauhT-22" target="ciahp-Gt6Fmims4PauhT-2">
          <mxGeometry relative="1" as="geometry" />
        </mxCell>
        <mxCell id="ciahp-Gt6Fmims4PauhT-22" value="N Cliente" style="ellipse;whiteSpace=wrap;html=1;align=center;" parent="1" vertex="1">
          <mxGeometry x="560" y="180" width="90" height="30" as="geometry" />
        </mxCell>
        <mxCell id="UdiOFKoYtMbHhU-ag28c-18" style="edgeStyle=orthogonalEdgeStyle;rounded=0;orthogonalLoop=1;jettySize=auto;html=1;exitX=0.5;exitY=1;exitDx=0;exitDy=0;endArrow=none;endFill=0;" edge="1" parent="1" source="ciahp-Gt6Fmims4PauhT-23">
          <mxGeometry relative="1" as="geometry">
            <mxPoint x="560" y="370" as="targetPoint" />
          </mxGeometry>
        </mxCell>
        <mxCell id="ciahp-Gt6Fmims4PauhT-23" value="Direccion envio" style="ellipse;whiteSpace=wrap;html=1;align=center;" parent="1" vertex="1">
          <mxGeometry x="510" y="140" width="100" height="40" as="geometry" />
        </mxCell>
        <mxCell id="ciahp-Gt6Fmims4PauhT-24" value="Fecha pedido" style="ellipse;whiteSpace=wrap;html=1;align=center;" parent="1" vertex="1">
          <mxGeometry x="470" y="175" width="100" height="40" as="geometry" />
        </mxCell>
        <mxCell id="UdiOFKoYtMbHhU-ag28c-5" style="edgeStyle=orthogonalEdgeStyle;rounded=0;orthogonalLoop=1;jettySize=auto;html=1;exitX=0;exitY=0;exitDx=0;exitDy=0;entryX=0;entryY=0;entryDx=0;entryDy=0;endArrow=none;endFill=0;" edge="1" parent="1" source="ciahp-Gt6Fmims4PauhT-25" target="ciahp-Gt6Fmims4PauhT-2">
          <mxGeometry relative="1" as="geometry" />
        </mxCell>
        <mxCell id="ciahp-Gt6Fmims4PauhT-25" value="Num articulo y cantidad" style="ellipse;whiteSpace=wrap;html=1;align=center;" parent="1" vertex="1">
          <mxGeometry x="510" y="210" width="100" height="40" as="geometry" />
        </mxCell>
        <mxCell id="UdiOFKoYtMbHhU-ag28c-17" style="edgeStyle=orthogonalEdgeStyle;rounded=0;orthogonalLoop=1;jettySize=auto;html=1;exitX=1;exitY=0.5;exitDx=0;exitDy=0;endArrow=none;endFill=0;" edge="1" parent="1" source="ciahp-Gt6Fmims4PauhT-26" target="ciahp-Gt6Fmims4PauhT-1">
          <mxGeometry relative="1" as="geometry" />
        </mxCell>
        <mxCell id="ciahp-Gt6Fmims4PauhT-26" value="&lt;u&gt;ID&lt;/u&gt;" style="ellipse;whiteSpace=wrap;html=1;align=center;" parent="1" vertex="1">
          <mxGeometry x="310" y="270" width="60" height="20" as="geometry" />
        </mxCell>
        <mxCell id="UdiOFKoYtMbHhU-ag28c-13" style="edgeStyle=orthogonalEdgeStyle;rounded=0;orthogonalLoop=1;jettySize=auto;html=1;endArrow=none;endFill=0;" edge="1" parent="1" source="ciahp-Gt6Fmims4PauhT-27" target="ciahp-Gt6Fmims4PauhT-1">
          <mxGeometry relative="1" as="geometry" />
        </mxCell>
        <mxCell id="ciahp-Gt6Fmims4PauhT-27" value="cantidad en stock" style="ellipse;whiteSpace=wrap;html=1;align=center;" parent="1" vertex="1">
          <mxGeometry x="340" y="230" width="90" height="40" as="geometry" />
        </mxCell>
        <mxCell id="UdiOFKoYtMbHhU-ag28c-14" style="edgeStyle=orthogonalEdgeStyle;rounded=0;orthogonalLoop=1;jettySize=auto;html=1;endArrow=none;endFill=0;" edge="1" parent="1" source="ciahp-Gt6Fmims4PauhT-28" target="ciahp-Gt6Fmims4PauhT-1">
          <mxGeometry relative="1" as="geometry" />
        </mxCell>
        <mxCell id="ciahp-Gt6Fmims4PauhT-28" value="Info del distribuidor" style="ellipse;whiteSpace=wrap;html=1;align=center;" parent="1" vertex="1">
          <mxGeometry x="390" y="260" width="100" height="40" as="geometry" />
        </mxCell>
        <mxCell id="ciahp-Gt6Fmims4PauhT-29" value="Descripcion" style="ellipse;whiteSpace=wrap;html=1;align=center;" parent="1" vertex="1">
          <mxGeometry x="324" y="290" width="90" height="30" as="geometry" />
        </mxCell>
        <mxCell id="UdiOFKoYtMbHhU-ag28c-2" style="edgeStyle=orthogonalEdgeStyle;rounded=0;orthogonalLoop=1;jettySize=auto;html=1;exitX=0.5;exitY=1;exitDx=0;exitDy=0;startArrow=none;startFill=0;endArrow=none;endFill=0;" edge="1" parent="1" source="ciahp-Gt6Fmims4PauhT-31" target="ciahp-Gt6Fmims4PauhT-4">
          <mxGeometry relative="1" as="geometry" />
        </mxCell>
        <mxCell id="ciahp-Gt6Fmims4PauhT-31" value="Telefono de contacto" style="ellipse;whiteSpace=wrap;html=1;align=center;" parent="1" vertex="1">
          <mxGeometry y="290" width="100" height="40" as="geometry" />
        </mxCell>
        <mxCell id="ciahp-Gt6Fmims4PauhT-32" value="&lt;u&gt;ID&lt;/u&gt;" style="ellipse;whiteSpace=wrap;html=1;align=center;" parent="1" vertex="1">
          <mxGeometry x="90" y="290" width="60" height="20" as="geometry" />
        </mxCell>
        <mxCell id="UdiOFKoYtMbHhU-ag28c-3" style="edgeStyle=orthogonalEdgeStyle;rounded=0;orthogonalLoop=1;jettySize=auto;html=1;exitX=0.5;exitY=1;exitDx=0;exitDy=0;entryX=0.75;entryY=0;entryDx=0;entryDy=0;endArrow=none;endFill=0;" edge="1" parent="1" source="ciahp-Gt6Fmims4PauhT-33" target="ciahp-Gt6Fmims4PauhT-4">
          <mxGeometry relative="1" as="geometry" />
        </mxCell>
        <mxCell id="ciahp-Gt6Fmims4PauhT-33" value="Fabricas alternativas" style="ellipse;whiteSpace=wrap;html=1;align=center;" parent="1" vertex="1">
          <mxGeometry x="90" y="310" width="100" height="40" as="geometry" />
        </mxCell>
        <mxCell id="ciahp-Gt6Fmims4PauhT-34" value="Articulos en total que distribuye" style="ellipse;whiteSpace=wrap;html=1;align=center;" parent="1" vertex="1">
          <mxGeometry y="240" width="130" height="50" as="geometry" />
        </mxCell>
        <mxCell id="ciahp-Gt6Fmims4PauhT-3" value="Ciente" style="rounded=0;whiteSpace=wrap;html=1;fillColor=#e1d5e7;strokeColor=#9673a6;" parent="1" vertex="1">
          <mxGeometry x="660" y="380" width="120" height="60" as="geometry" />
        </mxCell>
        <mxCell id="ciahp-Gt6Fmims4PauhT-10" value="calle" style="rounded=1;whiteSpace=wrap;html=1;" parent="1" vertex="1">
          <mxGeometry x="630" y="520" width="60" height="20" as="geometry" />
        </mxCell>
        <mxCell id="UdiOFKoYtMbHhU-ag28c-19" style="edgeStyle=orthogonalEdgeStyle;rounded=0;orthogonalLoop=1;jettySize=auto;html=1;entryX=0.04;entryY=0.7;entryDx=0;entryDy=0;entryPerimeter=0;endArrow=none;endFill=0;" edge="1" parent="1" source="ciahp-Gt6Fmims4PauhT-12" target="ciahp-Gt6Fmims4PauhT-18">
          <mxGeometry relative="1" as="geometry" />
        </mxCell>
        <mxCell id="UdiOFKoYtMbHhU-ag28c-22" value="Limite de credito" style="ellipse;whiteSpace=wrap;html=1;align=center;dashed=1;" vertex="1" parent="1">
          <mxGeometry x="715" y="320" width="110" height="50" as="geometry" />
        </mxCell>
        <mxCell id="UdiOFKoYtMbHhU-ag28c-23" style="edgeStyle=orthogonalEdgeStyle;rounded=0;orthogonalLoop=1;jettySize=auto;html=1;entryX=0.6;entryY=1.025;entryDx=0;entryDy=0;entryPerimeter=0;endArrow=none;endFill=0;" edge="1" parent="1" source="ciahp-Gt6Fmims4PauhT-11" target="ciahp-Gt6Fmims4PauhT-18">
          <mxGeometry relative="1" as="geometry" />
        </mxCell>
        <mxCell id="UdiOFKoYtMbHhU-ag28c-26" value="1: n" style="text;html=1;strokeColor=none;fillColor=none;align=center;verticalAlign=middle;whiteSpace=wrap;rounded=0;" vertex="1" parent="1">
          <mxGeometry x="290" y="417.5" width="60" height="30" as="geometry" />
        </mxCell>
        <mxCell id="UdiOFKoYtMbHhU-ag28c-27" value="1 : n" style="text;html=1;strokeColor=none;fillColor=none;align=center;verticalAlign=middle;whiteSpace=wrap;rounded=0;" vertex="1" parent="1">
          <mxGeometry x="160" y="417.5" width="60" height="30" as="geometry" />
        </mxCell>
        <mxCell id="UdiOFKoYtMbHhU-ag28c-30" value="n : m" style="text;html=1;strokeColor=none;fillColor=none;align=center;verticalAlign=middle;whiteSpace=wrap;rounded=0;" vertex="1" parent="1">
          <mxGeometry x="220" y="340" width="60" height="30" as="geometry" />
        </mxCell>
        <mxCell id="UdiOFKoYtMbHhU-ag28c-31" value="1 : n" style="text;html=1;strokeColor=none;fillColor=none;align=center;verticalAlign=middle;whiteSpace=wrap;rounded=0;" vertex="1" parent="1">
          <mxGeometry x="590" y="410" width="60" height="30" as="geometry" />
        </mxCell>
        <mxCell id="UdiOFKoYtMbHhU-ag28c-32" value="1 : n" style="text;html=1;strokeColor=none;fillColor=none;align=center;verticalAlign=middle;whiteSpace=wrap;rounded=0;" vertex="1" parent="1">
          <mxGeometry x="470" y="410" width="60" height="30" as="geometry" />
        </mxCell>
        <mxCell id="UdiOFKoYtMbHhU-ag28c-33" value="&lt;div&gt;n : m&lt;br&gt;&lt;/div&gt;" style="text;html=1;strokeColor=none;fillColor=none;align=center;verticalAlign=middle;whiteSpace=wrap;rounded=0;" vertex="1" parent="1">
          <mxGeometry x="530" y="450" width="60" height="30" as="geometry" />
        </mxCell>
      </root>
    </mxGraphModel>
  </diagram>
</mxfile>
